<?xml version="1.0" encoding="UTF-8"?>
<svg xmlns:xlink="http://www.w3.org/1999/xlink" xmlns="http://www.w3.org/2000/svg" id="mermaid-svg-804" width="100%" style="max-width: 100%;" viewBox="-21.0352294921875 -21.0352294921875 1284.266259765625 572.7750488281249" role="graphics-document document" aria-roledescription="mindmap" height="100%"><style>#mermaid-svg-804{font-family:"trebuchet ms",verdana,arial,sans-serif;font-size:16px;fill:#ccc;}@keyframes edge-animation-frame{from{stroke-dashoffset:0;}}@keyframes dash{to{stroke-dashoffset:0;}}#mermaid-svg-804 .edge-animation-slow{stroke-dasharray:9,5!important;stroke-dashoffset:900;animation:dash 50s linear infinite;stroke-linecap:round;}#mermaid-svg-804 .edge-animation-fast{stroke-dasharray:9,5!important;stroke-dashoffset:900;animation:dash 20s linear infinite;stroke-linecap:round;}#mermaid-svg-804 .error-icon{fill:#a44141;}#mermaid-svg-804 .error-text{fill:#ddd;stroke:#ddd;}#mermaid-svg-804 .edge-thickness-normal{stroke-width:1px;}#mermaid-svg-804 .edge-thickness-thick{stroke-width:3.5px;}#mermaid-svg-804 .edge-pattern-solid{stroke-dasharray:0;}#mermaid-svg-804 .edge-thickness-invisible{stroke-width:0;fill:none;}#mermaid-svg-804 .edge-pattern-dashed{stroke-dasharray:3;}#mermaid-svg-804 .edge-pattern-dotted{stroke-dasharray:2;}#mermaid-svg-804 .marker{fill:lightgrey;stroke:lightgrey;}#mermaid-svg-804 .marker.cross{stroke:lightgrey;}#mermaid-svg-804 svg{font-family:"trebuchet ms",verdana,arial,sans-serif;font-size:16px;}#mermaid-svg-804 p{margin:0;}#mermaid-svg-804 .edge{stroke-width:3;}#mermaid-svg-804 .section--1 rect,#mermaid-svg-804 .section--1 path,#mermaid-svg-804 .section--1 circle,#mermaid-svg-804 .section--1 polygon,#mermaid-svg-804 .section--1 path{fill:#1f2020;}#mermaid-svg-804 .section--1 text{fill:lightgrey;}#mermaid-svg-804 .node-icon--1{font-size:40px;color:lightgrey;}#mermaid-svg-804 .section-edge--1{stroke:#1f2020;}#mermaid-svg-804 .edge-depth--1{stroke-width:17;}#mermaid-svg-804 .section--1 line{stroke:#e0dfdf;stroke-width:3;}#mermaid-svg-804 .disabled,#mermaid-svg-804 .disabled circle,#mermaid-svg-804 .disabled text{fill:lightgray;}#mermaid-svg-804 .disabled text{fill:#efefef;}#mermaid-svg-804 .section-0 rect,#mermaid-svg-804 .section-0 path,#mermaid-svg-804 .section-0 circle,#mermaid-svg-804 .section-0 polygon,#mermaid-svg-804 .section-0 path{fill:#0b0000;}#mermaid-svg-804 .section-0 text{fill:lightgrey;}#mermaid-svg-804 .node-icon-0{font-size:40px;color:lightgrey;}#mermaid-svg-804 .section-edge-0{stroke:#0b0000;}#mermaid-svg-804 .edge-depth-0{stroke-width:14;}#mermaid-svg-804 .section-0 line{stroke:#f4ffff;stroke-width:3;}#mermaid-svg-804 .disabled,#mermaid-svg-804 .disabled circle,#mermaid-svg-804 .disabled text{fill:lightgray;}#mermaid-svg-804 .disabled text{fill:#efefef;}#mermaid-svg-804 .section-1 rect,#mermaid-svg-804 .section-1 path,#mermaid-svg-804 .section-1 circle,#mermaid-svg-804 .section-1 polygon,#mermaid-svg-804 .section-1 path{fill:#4d1037;}#mermaid-svg-804 .section-1 text{fill:lightgrey;}#mermaid-svg-804 .node-icon-1{font-size:40px;color:lightgrey;}#mermaid-svg-804 .section-edge-1{stroke:#4d1037;}#mermaid-svg-804 .edge-depth-1{stroke-width:11;}#mermaid-svg-804 .section-1 line{stroke:#b2efc8;stroke-width:3;}#mermaid-svg-804 .disabled,#mermaid-svg-804 .disabled circle,#mermaid-svg-804 .disabled text{fill:lightgray;}#mermaid-svg-804 .disabled text{fill:#efefef;}#mermaid-svg-804 .section-2 rect,#mermaid-svg-804 .section-2 path,#mermaid-svg-804 .section-2 circle,#mermaid-svg-804 .section-2 polygon,#mermaid-svg-804 .section-2 path{fill:#3f5258;}#mermaid-svg-804 .section-2 text{fill:lightgrey;}#mermaid-svg-804 .node-icon-2{font-size:40px;color:lightgrey;}#mermaid-svg-804 .section-edge-2{stroke:#3f5258;}#mermaid-svg-804 .edge-depth-2{stroke-width:8;}#mermaid-svg-804 .section-2 line{stroke:#c0ada7;stroke-width:3;}#mermaid-svg-804 .disabled,#mermaid-svg-804 .disabled circle,#mermaid-svg-804 .disabled text{fill:lightgray;}#mermaid-svg-804 .disabled text{fill:#efefef;}#mermaid-svg-804 .section-3 rect,#mermaid-svg-804 .section-3 path,#mermaid-svg-804 .section-3 circle,#mermaid-svg-804 .section-3 polygon,#mermaid-svg-804 .section-3 path{fill:#4f2f1b;}#mermaid-svg-804 .section-3 text{fill:lightgrey;}#mermaid-svg-804 .node-icon-3{font-size:40px;color:lightgrey;}#mermaid-svg-804 .section-edge-3{stroke:#4f2f1b;}#mermaid-svg-804 .edge-depth-3{stroke-width:5;}#mermaid-svg-804 .section-3 line{stroke:#b0d0e4;stroke-width:3;}#mermaid-svg-804 .disabled,#mermaid-svg-804 .disabled circle,#mermaid-svg-804 .disabled text{fill:lightgray;}#mermaid-svg-804 .disabled text{fill:#efefef;}#mermaid-svg-804 .section-4 rect,#mermaid-svg-804 .section-4 path,#mermaid-svg-804 .section-4 circle,#mermaid-svg-804 .section-4 polygon,#mermaid-svg-804 .section-4 path{fill:#6e0a0a;}#mermaid-svg-804 .section-4 text{fill:lightgrey;}#mermaid-svg-804 .node-icon-4{font-size:40px;color:lightgrey;}#mermaid-svg-804 .section-edge-4{stroke:#6e0a0a;}#mermaid-svg-804 .edge-depth-4{stroke-width:2;}#mermaid-svg-804 .section-4 line{stroke:#91f5f5;stroke-width:3;}#mermaid-svg-804 .disabled,#mermaid-svg-804 .disabled circle,#mermaid-svg-804 .disabled text{fill:lightgray;}#mermaid-svg-804 .disabled text{fill:#efefef;}#mermaid-svg-804 .section-5 rect,#mermaid-svg-804 .section-5 path,#mermaid-svg-804 .section-5 circle,#mermaid-svg-804 .section-5 polygon,#mermaid-svg-804 .section-5 path{fill:#3b0048;}#mermaid-svg-804 .section-5 text{fill:lightgrey;}#mermaid-svg-804 .node-icon-5{font-size:40px;color:lightgrey;}#mermaid-svg-804 .section-edge-5{stroke:#3b0048;}#mermaid-svg-804 .edge-depth-5{stroke-width:-1;}#mermaid-svg-804 .section-5 line{stroke:#c4ffb7;stroke-width:3;}#mermaid-svg-804 .disabled,#mermaid-svg-804 .disabled circle,#mermaid-svg-804 .disabled text{fill:lightgray;}#mermaid-svg-804 .disabled text{fill:#efefef;}#mermaid-svg-804 .section-6 rect,#mermaid-svg-804 .section-6 path,#mermaid-svg-804 .section-6 circle,#mermaid-svg-804 .section-6 polygon,#mermaid-svg-804 .section-6 path{fill:#995a01;}#mermaid-svg-804 .section-6 text{fill:lightgrey;}#mermaid-svg-804 .node-icon-6{font-size:40px;color:lightgrey;}#mermaid-svg-804 .section-edge-6{stroke:#995a01;}#mermaid-svg-804 .edge-depth-6{stroke-width:-4;}#mermaid-svg-804 .section-6 line{stroke:#66a5fe;stroke-width:3;}#mermaid-svg-804 .disabled,#mermaid-svg-804 .disabled circle,#mermaid-svg-804 .disabled text{fill:lightgray;}#mermaid-svg-804 .disabled text{fill:#efefef;}#mermaid-svg-804 .section-7 rect,#mermaid-svg-804 .section-7 path,#mermaid-svg-804 .section-7 circle,#mermaid-svg-804 .section-7 polygon,#mermaid-svg-804 .section-7 path{fill:#154706;}#mermaid-svg-804 .section-7 text{fill:lightgrey;}#mermaid-svg-804 .node-icon-7{font-size:40px;color:lightgrey;}#mermaid-svg-804 .section-edge-7{stroke:#154706;}#mermaid-svg-804 .edge-depth-7{stroke-width:-7;}#mermaid-svg-804 .section-7 line{stroke:#eab8f9;stroke-width:3;}#mermaid-svg-804 .disabled,#mermaid-svg-804 .disabled circle,#mermaid-svg-804 .disabled text{fill:lightgray;}#mermaid-svg-804 .disabled text{fill:#efefef;}#mermaid-svg-804 .section-8 rect,#mermaid-svg-804 .section-8 path,#mermaid-svg-804 .section-8 circle,#mermaid-svg-804 .section-8 polygon,#mermaid-svg-804 .section-8 path{fill:#161722;}#mermaid-svg-804 .section-8 text{fill:lightgrey;}#mermaid-svg-804 .node-icon-8{font-size:40px;color:lightgrey;}#mermaid-svg-804 .section-edge-8{stroke:#161722;}#mermaid-svg-804 .edge-depth-8{stroke-width:-10;}#mermaid-svg-804 .section-8 line{stroke:#e9e8dd;stroke-width:3;}#mermaid-svg-804 .disabled,#mermaid-svg-804 .disabled circle,#mermaid-svg-804 .disabled text{fill:lightgray;}#mermaid-svg-804 .disabled text{fill:#efefef;}#mermaid-svg-804 .section-9 rect,#mermaid-svg-804 .section-9 path,#mermaid-svg-804 .section-9 circle,#mermaid-svg-804 .section-9 polygon,#mermaid-svg-804 .section-9 path{fill:#00296f;}#mermaid-svg-804 .section-9 text{fill:lightgrey;}#mermaid-svg-804 .node-icon-9{font-size:40px;color:lightgrey;}#mermaid-svg-804 .section-edge-9{stroke:#00296f;}#mermaid-svg-804 .edge-depth-9{stroke-width:-13;}#mermaid-svg-804 .section-9 line{stroke:#ffd690;stroke-width:3;}#mermaid-svg-804 .disabled,#mermaid-svg-804 .disabled circle,#mermaid-svg-804 .disabled text{fill:lightgray;}#mermaid-svg-804 .disabled text{fill:#efefef;}#mermaid-svg-804 .section-10 rect,#mermaid-svg-804 .section-10 path,#mermaid-svg-804 .section-10 circle,#mermaid-svg-804 .section-10 polygon,#mermaid-svg-804 .section-10 path{fill:#01629c;}#mermaid-svg-804 .section-10 text{fill:lightgrey;}#mermaid-svg-804 .node-icon-10{font-size:40px;color:lightgrey;}#mermaid-svg-804 .section-edge-10{stroke:#01629c;}#mermaid-svg-804 .edge-depth-10{stroke-width:-16;}#mermaid-svg-804 .section-10 line{stroke:#fe9d63;stroke-width:3;}#mermaid-svg-804 .disabled,#mermaid-svg-804 .disabled circle,#mermaid-svg-804 .disabled text{fill:lightgray;}#mermaid-svg-804 .disabled text{fill:#efefef;}#mermaid-svg-804 .section-root rect,#mermaid-svg-804 .section-root path,#mermaid-svg-804 .section-root circle,#mermaid-svg-804 .section-root polygon{fill:hsl(180, 1.5873015873%, 48.3529411765%);}#mermaid-svg-804 .section-root text{fill:#2c2c2c;}#mermaid-svg-804 .icon-container{height:100%;display:flex;justify-content:center;align-items:center;}#mermaid-svg-804 .edge{fill:none;}#mermaid-svg-804 .mindmap-node-label{dy:1em;alignment-baseline:middle;text-anchor:middle;dominant-baseline:middle;text-align:center;}#mermaid-svg-804 :root{--mermaid-font-family:"trebuchet ms",verdana,arial,sans-serif;}</style><g/><g class="mindmap-edges"><path d="M 698.7035937744015,154.49078443698926 L 661.8371833132509,172.05062248411966 L624.9707728521003,189.61046053125006" class="edge section-edge-0 edge-depth-2"/><path d="M 698.5270386004794,141.97469155017274 L 650.4743678914831,120.7282469180669 L602.4216971824868,99.48180228596107" class="edge section-edge-0 edge-depth-2"/><path d="M 726.6271879175049,152.30400439776616 L 780.8414560775248,168.37658502896326 L835.0557242375446,184.44916566016036" class="edge section-edge-0 edge-depth-2"/><path d="M 748.4385747210979,226.5117877517925 L 733.4833834939253,194.08664005139363 L718.5281922667527,161.66149235099476" class="edge section-edge-0 edge-depth-1"/><path d="M 881.1729199566423,323.7157896291961 L 951.6940665323107,337.4843372117128 L1022.215213107979,351.2528847942295" class="edge section-edge-0 edge-depth-2"/><path d="M 881.0364916930491,317.34000930736556 L 927.1395862231941,306.2724027114565 L973.2426807533391,295.2047961155474" class="edge section-edge-0 edge-depth-2"/><path d="M 877.2170940830883,331.2860187934374 L 911.4579728823501,364.5039278869761 L945.6988516816116,397.7218369805148" class="edge section-edge-0 edge-depth-2"/><path d="M 766.880319613255,248.91623195323808 L 810.5858906606773,280.4871392474146 L854.2914617080995,312.058046541591" class="edge section-edge-0 edge-depth-1"/><path d="M 977.9036323420171,209.24949227868768 L 995.5361180205382,180.443673858628 L1013.1686036990593,151.6378554385683" class="edge section-edge-0 edge-depth-2"/><path d="M 984.8338390974469,224.7082824579846 L 1060.2161889151023,238.3192221386923 L1135.5985387327578,251.9301618194" class="edge section-edge-0 edge-depth-2"/><path d="M 984.7438773869915,218.92025291813314 L 1058.216481571464,203.28185909848654 L1131.6890857559365,187.64346527883993" class="edge section-edge-0 edge-depth-2"/><path d="M 769.6682503104021,238.8772207011131 L 862.3967114203895,231.08790881862032 L955.1251725303769,223.29859693612755" class="edge section-edge-0 edge-depth-1"/><path d="M 807.7855873614963,114.89319628059243 L 831.586812271978,80.44403023229268 L855.38803718246,45.99486418399292" class="edge section-edge-0 edge-depth-2"/><path d="M 788.7116462547235,116.56874584684098 L 760.2947940501012,87.83413804746074 L731.877941845479,59.09953024808051" class="edge section-edge-0 edge-depth-2"/><path d="M 813.6538691539574,123.01621533656463 L 868.4405647262417,106.96266513454836 L923.2272602985261,90.90911493253209" class="edge section-edge-0 edge-depth-2"/><path d="M 760.2254997758473,226.17934873868467 L 776.9900034893449,183.68348620722986 L793.7545072028422,141.187623675775" class="edge section-edge-0 edge-depth-1"/><path d="M 677.4098390772707,322.53032804141054 L 631.4435472879082,330.2356989953054 L585.4772554985458,337.9410699492003" class="edge section-edge-0 edge-depth-2"/><path d="M 705.6898999339202,326.61667291371066 L 743.3117815290184,344.93377539976933 L780.9336631241166,363.250877885828" class="edge section-edge-0 edge-depth-2"/><path d="M 684.7692788186266,333.0786433440385 L 666.7975594783668,364.5736731806029 L648.825840138107,396.0687030171673" class="edge section-edge-0 edge-depth-2"/><path d="M 745.4787250444834,251.94731445698483 L 723.4621608931213,280.0916417711926 L701.4455967417592,308.23596908540037" class="edge section-edge-0 edge-depth-1"/><path d="M 501.4691470305682,282.450755127309 L 620.6975842839582,262.52788566038316 L739.9260215373483,242.6050161934574" class="edge section-edge-0 edge-depth-0"/><path d="M 265.25883574682473,361.9571564652928 L 265.7219594590987,396.5828802627064 L266.18508317137264,431.20860406011997" class="edge section-edge-1 edge-depth-1"/><path d="M 250.9164031308876,341.95761537869555 L 184.26703357209834,318.38882508610305 L117.61766401330908,294.82003479351056" class="edge section-edge-1 edge-depth-1"/><path d="M 251.6493438259928,353.68173090499715 L 200.1223915209461,379.5174180092292 L148.59543921589943,405.3531051134612" class="edge section-edge-1 edge-depth-1"/><path d="M 250.07521923633544,347.67228238611295 L 166.0330195863587,351.67601867299214 L81.99081993638197,355.67975495987133" class="edge section-edge-1 edge-depth-1"/><path d="M 472.22952795654373,288.9663776053414 L 375.8662508586699,315.9407255564309 L279.50297376079607,342.9150735075204" class="edge section-edge-1 edge-depth-0"/><path d="M 341.7217573449473,189.65561793712908 L 299.08235296288404,159.4876105076772 L256.44294858082077,129.31960307822533" class="edge section-edge-2 edge-depth-1"/><path d="M 339.38139678723536,201.8212778896166 L 271.88076954839323,218.02868000953706 L204.3801423095511,234.23608212945751" class="edge section-edge-2 edge-depth-1"/><path d="M 356.90266656123583,183.60930792621718 L 363.8574605506228,148.7623397294125 L370.8122545400098,113.91537153260784" class="edge section-edge-2 edge-depth-1"/><path d="M 368.0357155468771,193.11660260901422 L 424.93868087456303,172.07415619704724 L481.84164620224897,151.03170978508027" class="edge section-edge-2 edge-depth-1"/><path d="M 474.11251742198624,276.72525555205334 L 420.320562854219,241.62107758346696 L366.5286082864518,206.51689961488057" class="edge section-edge-2 edge-depth-0"/><path d="M 334.31581060131043,264.6172544274239 L 393.70650598032876,245.19133542534718 L453.0972013593471,225.76541642327044" class="edge section-edge-3 edge-depth-1"/><path d="M 309.72781291281376,258.4054710120584 L 280.15955721088056,227.28108249325237 L250.5913015089474,196.15669397444634" class="edge section-edge-3 edge-depth-1"/><path d="M 332.44381206504016,277.743200060271 L 368.25342768136807,302.21265903996164 L404.06304329769597,326.68211801965225" class="edge section-edge-3 edge-depth-1"/><path d="M 471.73994779572945,283.5208583940729 L 403.3666728961682,277.1017002629868 L334.993397996607,270.68254213190073" class="edge section-edge-3 edge-depth-0"/><path d="M 469.71989308711295,398.6482313825349 L 421.80236875443927,399.0817343680624 L373.8848444217656,399.51523735358995" class="edge section-edge-4 edge-depth-1"/><path d="M 473.05976498346644,407.9494682403298 L 438.52418376214905,435.9017480471982 L403.98860254083166,463.85402785406666" class="edge section-edge-4 edge-depth-1"/><path d="M 497.08979161187665,406.99607253676527 L 537.9994752145179,435.05140806172983 L578.9091588171592,463.1067435866943" class="edge section-edge-4 edge-depth-1"/><path d="M 485.1394492032668,413.50664816853214 L 486.0999136331254,447.78162248343847 L487.06037806298406,482.0565967983449" class="edge section-edge-4 edge-depth-1"/><path d="M 486.41614754888496,299.9207319629721 L 485.69677716363253,341.7177436014817 L484.9774067783801,383.51475523999125" class="edge section-edge-4 edge-depth-0"/></g><g class="mindmap-nodes"><g class="mindmap-node section--1 section-root" transform="translate(438.6078687946224, 266.26904687089205)"><g transform="translate(48.06640625, 18.65390625)"><circle id="node-0" class="node-bkg node-circle" r="48.06640625"/></g><g dy="1em" alignment-baseline="middle" dominant-baseline="middle" text-anchor="middle" transform="translate(48.06640625, 5)"><g><rect class="background" style="stroke: none"/><text y="-10.1" style=""><tspan class="text-outer-tspan" x="0" y="-0.1em" dy="1.1em"><tspan font-style="normal" class="text-inner-tspan" font-weight="normal">DoPlan</tspan><tspan font-style="normal" class="text-inner-tspan" font-weight="normal"> CLI</tspan></tspan></text></g></g></g><g class="mindmap-node section-0" transform="translate(671.0138622732941, 221.47891194987432)"><g><path id="node-1" class="node-bkg node-no-border" d="M0 32.3078125 v-27.307812499999997 q0,-5 5,-5 h157.4140625 q5,0 5,5 v32.3078125 H0 Z"/><line class="node-line-0" x1="0" y1="37.3078125" x2="167.4140625" y2="37.3078125"/></g><g dy="1em" alignment-baseline="middle" dominant-baseline="middle" text-anchor="middle" transform="translate(83.70703125, 5)"><g><rect class="background" style="stroke: none"/><text y="-10.1" style=""><tspan class="text-outer-tspan" x="0" y="-0.1em" dy="1.1em"><tspan font-style="normal" class="text-inner-tspan" font-weight="normal">Project</tspan><tspan font-style="normal" class="text-inner-tspan" font-weight="normal"> Management</tspan></tspan></text></g></g></g><g class="mindmap-node section-1" transform="translate(185.6129141727174, 328.3045917419698)"><g><path id="node-22" class="node-bkg node-no-border" d="M0 32.3078125 v-27.307812499999997 q0,-5 5,-5 h148.890625 q5,0 5,5 v32.3078125 H0 Z"/><line class="node-line-1" x1="0" y1="37.3078125" x2="158.890625" y2="37.3078125"/></g><g dy="1em" alignment-baseline="middle" dominant-baseline="middle" text-anchor="middle" transform="translate(79.4453125, 5)"><g><rect class="background" style="stroke: none"/><text y="-10.1" style=""><tspan class="text-outer-tspan" x="0" y="-0.1em" dy="1.1em"><tspan font-style="normal" class="text-inner-tspan" font-weight="normal">Team</tspan><tspan font-style="normal" class="text-inner-tspan" font-weight="normal"> Collaboration</tspan></tspan></text></g></g></g><g class="mindmap-node section-2" transform="translate(311.17388191381565, 179.6652957960419)"><g><path id="node-27" class="node-bkg node-no-border" d="M0 32.3078125 v-27.307812499999997 q0,-5 5,-5 h75.5859375 q5,0 5,5 v32.3078125 H0 Z"/><line class="node-line-2" x1="0" y1="37.3078125" x2="85.5859375" y2="37.3078125"/></g><g dy="1em" alignment-baseline="middle" dominant-baseline="middle" text-anchor="middle" transform="translate(42.79296875, 5)"><g><rect class="background" style="stroke: none"/><text y="-10.1" style=""><tspan class="text-outer-tspan" x="0" y="-0.1em" dy="1.1em"><tspan font-style="normal" class="text-inner-tspan" font-weight="normal">AI</tspan><tspan font-style="normal" class="text-inner-tspan" font-weight="normal"> Agents</tspan></tspan></text></g></g></g><g class="mindmap-node section-3" transform="translate(261.55516449771403, 250.62654115508158)"><g><path id="node-32" class="node-bkg node-no-border" d="M0 32.3078125 v-27.307812499999997 q0,-5 5,-5 h107.0078125 q5,0 5,5 v32.3078125 H0 Z"/><line class="node-line-3" x1="0" y1="37.3078125" x2="117.0078125" y2="37.3078125"/></g><g dy="1em" alignment-baseline="middle" dominant-baseline="middle" text-anchor="middle" transform="translate(58.50390625, 5)"><g><rect class="background" style="stroke: none"/><text y="-10.1" style=""><tspan class="text-outer-tspan" x="0" y="-0.1em" dy="1.1em"><tspan font-style="normal" class="text-inner-tspan" font-weight="normal">Configuration</tspan></tspan></text></g></g></g><g class="mindmap-node section-4" transform="translate(433.9888105326427, 379.85862783207136)"><g><path id="node-36" class="node-bkg node-no-border" d="M0 32.3078125 v-27.307812499999997 q0,-5 5,-5 h91.4609375 q5,0 5,5 v32.3078125 H0 Z"/><line class="node-line-4" x1="0" y1="37.3078125" x2="101.4609375" y2="37.3078125"/></g><g dy="1em" alignment-baseline="middle" dominant-baseline="middle" text-anchor="middle" transform="translate(50.73046875, 5)"><g><rect class="background" style="stroke: none"/><text y="-10.1" style=""><tspan class="text-outer-tspan" x="0" y="-0.1em" dy="1.1em"><tspan font-style="normal" class="text-inner-tspan" font-weight="normal">Help</tspan><tspan font-style="normal" class="text-inner-tspan" font-weight="normal"> &amp;</tspan><tspan font-style="normal" class="text-inner-tspan" font-weight="normal"> Info</tspan></tspan></text></g></g></g><g class="mindmap-node section-0" transform="translate(685.3708734645566, 129.38655565291293)"><g><path id="node-2" class="node-bkg node-no-border" d="M0 32.3078125 v-27.307812499999997 q0,-5 5,-5 h43.75 q5,0 5,5 v32.3078125 H0 Z"/><line class="node-line-0" x1="0" y1="37.3078125" x2="53.75" y2="37.3078125"/></g><g dy="1em" alignment-baseline="middle" dominant-baseline="middle" text-anchor="middle" transform="translate(26.875, 5)"><g><rect class="background" style="stroke: none"/><text y="-10.1" style=""><tspan class="text-outer-tspan" x="0" y="-0.1em" dy="1.1em"><tspan font-style="normal" class="text-inner-tspan" font-weight="normal">/hey</tspan></tspan></text></g></g></g><g class="mindmap-node section-0" transform="translate(843.5055752980604, 302.18755404495477)"><g><path id="node-6" class="node-bkg node-no-border" d="M0 32.3078125 v-27.307812499999997 q0,-5 5,-5 h35.890625 q5,0 5,5 v32.3078125 H0 Z"/><line class="node-line-0" x1="0" y1="37.3078125" x2="45.890625" y2="37.3078125"/></g><g dy="1em" alignment-baseline="middle" dominant-baseline="middle" text-anchor="middle" transform="translate(22.9453125, 5)"><g><rect class="background" style="stroke: none"/><text y="-10.1" style=""><tspan class="text-outer-tspan" x="0" y="-0.1em" dy="1.1em"><tspan font-style="normal" class="text-inner-tspan" font-weight="normal">/do</tspan></tspan></text></g></g></g><g class="mindmap-node section-0" transform="translate(940.4865918174849, 203.3890931873663)"><g><path id="node-10" class="node-bkg node-no-border" d="M0 32.3078125 v-27.307812499999997 q0,-5 5,-5 h49.171875 q5,0 5,5 v32.3078125 H0 Z"/><line class="node-line-0" x1="0" y1="37.3078125" x2="59.171875" y2="37.3078125"/></g><g dy="1em" alignment-baseline="middle" dominant-baseline="middle" text-anchor="middle" transform="translate(29.5859375, 5)"><g><rect class="background" style="stroke: none"/><text y="-10.1" style=""><tspan class="text-outer-tspan" x="0" y="-0.1em" dy="1.1em"><tspan font-style="normal" class="text-inner-tspan" font-weight="normal">/plan</tspan></tspan></text></g></g></g><g class="mindmap-node section-0" transform="translate(772.3255197053954, 108.58024796458534)"><g><path id="node-14" class="node-bkg node-no-border" d="M0 32.3078125 v-27.307812499999997 q0,-5 5,-5 h43.8671875 q5,0 5,5 v32.3078125 H0 Z"/><line class="node-line-0" x1="0" y1="37.3078125" x2="53.8671875" y2="37.3078125"/></g><g dy="1em" alignment-baseline="middle" dominant-baseline="middle" text-anchor="middle" transform="translate(26.93359375, 5)"><g><rect class="background" style="stroke: none"/><text y="-10.1" style=""><tspan class="text-outer-tspan" x="0" y="-0.1em" dy="1.1em"><tspan font-style="normal" class="text-inner-tspan" font-weight="normal">/dev</tspan></tspan></text></g></g></g><g class="mindmap-node section-0" transform="translate(667.5862407629486, 301.3965590925109)"><g><path id="node-18" class="node-bkg node-no-border" d="M0 32.3078125 v-27.307812499999997 q0,-5 5,-5 h39.234375 q5,0 5,5 v32.3078125 H0 Z"/><line class="node-line-0" x1="0" y1="37.3078125" x2="49.234375" y2="37.3078125"/></g><g dy="1em" alignment-baseline="middle" dominant-baseline="middle" text-anchor="middle" transform="translate(24.6171875, 5)"><g><rect class="background" style="stroke: none"/><text y="-10.1" style=""><tspan class="text-outer-tspan" x="0" y="-0.1em" dy="1.1em"><tspan font-style="normal" class="text-inner-tspan" font-weight="normal">/sys</tspan></tspan></text></g></g></g><g class="mindmap-node section-1" transform="translate(208.22944224547996, 427.55335628344307)"><g><path id="node-23" class="node-bkg node-no-border" d="M0 32.3078125 v-27.307812499999997 q0,-5 5,-5 h106.3125 q5,0 5,5 v32.3078125 H0 Z"/><line class="node-line-1" x1="0" y1="37.3078125" x2="116.3125" y2="37.3078125"/></g><g dy="1em" alignment-baseline="middle" dominant-baseline="middle" text-anchor="middle" transform="translate(58.15625, 5)"><g><rect class="background" style="stroke: none"/><text y="-10.1" style=""><tspan class="text-outer-tspan" x="0" y="-0.1em" dy="1.1em"><tspan font-style="normal" class="text-inner-tspan" font-weight="normal">/team</tspan><tspan font-style="normal" class="text-inner-tspan" font-weight="normal"> create</tspan></tspan></text></g></g></g><g class="mindmap-node section-1" transform="translate(48.10474672147927, 271.1652459302364)"><g><path id="node-24" class="node-bkg node-no-border" d="M0 32.3078125 v-27.307812499999997 q0,-5 5,-5 h100.7421875 q5,0 5,5 v32.3078125 H0 Z"/><line class="node-line-1" x1="0" y1="37.3078125" x2="110.7421875" y2="37.3078125"/></g><g dy="1em" alignment-baseline="middle" dominant-baseline="middle" text-anchor="middle" transform="translate(55.37109375, 5)"><g><rect class="background" style="stroke: none"/><text y="-10.1" style=""><tspan class="text-outer-tspan" x="0" y="-0.1em" dy="1.1em"><tspan font-style="normal" class="text-inner-tspan" font-weight="normal">/team</tspan><tspan font-style="normal" class="text-inner-tspan" font-weight="normal"> invite</tspan></tspan></text></g></g></g><g class="mindmap-node section-1" transform="translate(84.68655636917481, 393.4224317764886)"><g><path id="node-25" class="node-bkg node-no-border" d="M0 32.3078125 v-27.307812499999997 q0,-5 5,-5 h91 q5,0 5,5 v32.3078125 H0 Z"/><line class="node-line-1" x1="0" y1="37.3078125" x2="101" y2="37.3078125"/></g><g dy="1em" alignment-baseline="middle" dominant-baseline="middle" text-anchor="middle" transform="translate(50.5, 5)"><g><rect class="background" style="stroke: none"/><text y="-10.1" style=""><tspan class="text-outer-tspan" x="0" y="-0.1em" dy="1.1em"><tspan font-style="normal" class="text-inner-tspan" font-weight="normal">/team</tspan><tspan font-style="normal" class="text-inner-tspan" font-weight="normal"> sync</tspan></tspan></text></g></g></g><g class="mindmap-node section-1" transform="translate(15, 337.73963310401456)"><g><path id="node-26" class="node-bkg node-no-border" d="M0 32.3078125 v-27.307812499999997 q0,-5 5,-5 h94.015625 q5,0 5,5 v32.3078125 H0 Z"/><line class="node-line-1" x1="0" y1="37.3078125" x2="104.015625" y2="37.3078125"/></g><g dy="1em" alignment-baseline="middle" dominant-baseline="middle" text-anchor="middle" transform="translate(52.0078125, 5)"><g><rect class="background" style="stroke: none"/><text y="-10.1" style=""><tspan class="text-outer-tspan" x="0" y="-0.1em" dy="1.1em"><tspan font-style="normal" class="text-inner-tspan" font-weight="normal">/team</tspan><tspan font-style="normal" class="text-inner-tspan" font-weight="normal"> stats</tspan></tspan></text></g></g></g><g class="mindmap-node section-2" transform="translate(196.41660526195244, 102.00211271931249)"><g><path id="node-28" class="node-bkg node-no-border" d="M0 32.3078125 v-27.307812499999997 q0,-5 5,-5 h85.5625 q5,0 5,5 v32.3078125 H0 Z"/><line class="node-line-2" x1="0" y1="37.3078125" x2="95.5625" y2="37.3078125"/></g><g dy="1em" alignment-baseline="middle" dominant-baseline="middle" text-anchor="middle" transform="translate(47.78125, 5)"><g><rect class="background" style="stroke: none"/><text y="-10.1" style=""><tspan class="text-outer-tspan" x="0" y="-0.1em" dy="1.1em"><tspan font-style="normal" class="text-inner-tspan" font-weight="normal">/agent</tspan><tspan font-style="normal" class="text-inner-tspan" font-weight="normal"> list</tspan></tspan></text></g></g></g><g class="mindmap-node section-2" transform="translate(141.58765718297082, 219.0842517230322)"><g><path id="node-29" class="node-bkg node-no-border" d="M0 32.3078125 v-27.307812499999997 q0,-5 5,-5 h86.4140625 q5,0 5,5 v32.3078125 H0 Z"/><line class="node-line-2" x1="0" y1="37.3078125" x2="96.4140625" y2="37.3078125"/></g><g dy="1em" alignment-baseline="middle" dominant-baseline="middle" text-anchor="middle" transform="translate(48.20703125, 5)"><g><rect class="background" style="stroke: none"/><text y="-10.1" style=""><tspan class="text-outer-tspan" x="0" y="-0.1em" dy="1.1em"><tspan font-style="normal" class="text-inner-tspan" font-weight="normal">/agent</tspan><tspan font-style="normal" class="text-inner-tspan" font-weight="normal"> ask</tspan></tspan></text></g></g></g><g class="mindmap-node section-2" transform="translate(315.13869543743, 80.55157116278309)"><g><path id="node-30" class="node-bkg node-no-border" d="M0 32.3078125 v-27.307812499999997 q0,-5 5,-5 h107.21875 q5,0 5,5 v32.3078125 H0 Z"/><line class="node-line-2" x1="0" y1="37.3078125" x2="117.21875" y2="37.3078125"/></g><g dy="1em" alignment-baseline="middle" dominant-baseline="middle" text-anchor="middle" transform="translate(58.609375, 5)"><g><rect class="background" style="stroke: none"/><text y="-10.1" style=""><tspan class="text-outer-tspan" x="0" y="-0.1em" dy="1.1em"><tspan font-style="normal" class="text-inner-tspan" font-weight="normal">/agent</tspan><tspan font-style="normal" class="text-inner-tspan" font-weight="normal"> config</tspan></tspan></text></g></g></g><g class="mindmap-node section-2" transform="translate(442.0433235853104, 127.17520409805257)"><g><path id="node-31" class="node-bkg node-no-border" d="M0 32.3078125 v-27.307812499999997 q0,-5 5,-5 h97.734375 q5,0 5,5 v32.3078125 H0 Z"/><line class="node-line-2" x1="0" y1="37.3078125" x2="107.734375" y2="37.3078125"/></g><g dy="1em" alignment-baseline="middle" dominant-baseline="middle" text-anchor="middle" transform="translate(53.8671875, 5)"><g><rect class="background" style="stroke: none"/><text y="-10.1" style=""><tspan class="text-outer-tspan" x="0" y="-0.1em" dy="1.1em"><tspan font-style="normal" class="text-inner-tspan" font-weight="normal">/agent</tspan><tspan font-style="normal" class="text-inner-tspan" font-weight="normal"> train</tspan></tspan></text></g></g></g><g class="mindmap-node section-3" transform="translate(418.0961287129435, 202.4483171956128)"><g><path id="node-33" class="node-bkg node-no-border" d="M0 32.3078125 v-27.307812499999997 q0,-5 5,-5 h88.515625 q5,0 5,5 v32.3078125 H0 Z"/><line class="node-line-3" x1="0" y1="37.3078125" x2="98.515625" y2="37.3078125"/></g><g dy="1em" alignment-baseline="middle" dominant-baseline="middle" text-anchor="middle" transform="translate(49.2578125, 5)"><g><rect class="background" style="stroke: none"/><text y="-10.1" style=""><tspan class="text-outer-tspan" x="0" y="-0.1em" dy="1.1em"><tspan font-style="normal" class="text-inner-tspan" font-weight="normal">/config</tspan><tspan font-style="normal" class="text-inner-tspan" font-weight="normal"> set</tspan></tspan></text></g></g></g><g class="mindmap-node section-3" transform="translate(190.2248874240471, 166.62781133142317)"><g><path id="node-34" class="node-bkg node-no-border" d="M0 32.3078125 v-27.307812499999997 q0,-5 5,-5 h90.0703125 q5,0 5,5 v32.3078125 H0 Z"/><line class="node-line-3" x1="0" y1="37.3078125" x2="100.0703125" y2="37.3078125"/></g><g dy="1em" alignment-baseline="middle" dominant-baseline="middle" text-anchor="middle" transform="translate(50.03515625, 5)"><g><rect class="background" style="stroke: none"/><text y="-10.1" style=""><tspan class="text-outer-tspan" x="0" y="-0.1em" dy="1.1em"><tspan font-style="normal" class="text-inner-tspan" font-weight="normal">/config</tspan><tspan font-style="normal" class="text-inner-tspan" font-weight="normal"> get</tspan></tspan></text></g></g></g><g class="mindmap-node section-3" transform="translate(366.9126283650221, 316.4909644248417)"><g><path id="node-35" class="node-bkg node-no-border" d="M0 32.3078125 v-27.307812499999997 q0,-5 5,-5 h89.0703125 q5,0 5,5 v32.3078125 H0 Z"/><line class="node-line-3" x1="0" y1="37.3078125" x2="99.0703125" y2="37.3078125"/></g><g dy="1em" alignment-baseline="middle" dominant-baseline="middle" text-anchor="middle" transform="translate(49.53515625, 5)"><g><rect class="background" style="stroke: none"/><text y="-10.1" style=""><tspan class="text-outer-tspan" x="0" y="-0.1em" dy="1.1em"><tspan font-style="normal" class="text-inner-tspan" font-weight="normal">/config</tspan><tspan font-style="normal" class="text-inner-tspan" font-weight="normal"> list</tspan></tspan></text></g></g></g><g class="mindmap-node section-4" transform="translate(329.13936447623587, 380.99702840405354)"><g><path id="node-37" class="node-bkg node-no-border" d="M0 32.3078125 v-27.307812499999997 q0,-5 5,-5 h49.4921875 q5,0 5,5 v32.3078125 H0 Z"/><line class="node-line-4" x1="0" y1="37.3078125" x2="59.4921875" y2="37.3078125"/></g><g dy="1em" alignment-baseline="middle" dominant-baseline="middle" text-anchor="middle" transform="translate(29.74609375, 5)"><g><rect class="background" style="stroke: none"/><text y="-10.1" style=""><tspan class="text-outer-tspan" x="0" y="-0.1em" dy="1.1em"><tspan font-style="normal" class="text-inner-tspan" font-weight="normal">/help</tspan></tspan></text></g></g></g><g class="mindmap-node section-4" transform="translate(361.1103382416554, 454.63705576232513)"><g><path id="node-38" class="node-bkg node-no-border" d="M0 32.3078125 v-27.307812499999997 q0,-5 5,-5 h52.4375 q5,0 5,5 v32.3078125 H0 Z"/><line class="node-line-4" x1="0" y1="37.3078125" x2="62.4375" y2="37.3078125"/></g><g dy="1em" alignment-baseline="middle" dominant-baseline="middle" text-anchor="middle" transform="translate(31.21875, 5)"><g><rect class="background" style="stroke: none"/><text y="-10.1" style=""><tspan class="text-outer-tspan" x="0" y="-0.1em" dy="1.1em"><tspan font-style="normal" class="text-inner-tspan" font-weight="normal">/stats</tspan></tspan></text></g></g></g><g class="mindmap-node section-4" transform="translate(551.5101398963932, 452.93637579138823)"><g><path id="node-39" class="node-bkg node-no-border" d="M0 32.3078125 v-27.307812499999997 q0,-5 5,-5 h69.5390625 q5,0 5,5 v32.3078125 H0 Z"/><line class="node-line-4" x1="0" y1="37.3078125" x2="79.5390625" y2="37.3078125"/></g><g dy="1em" alignment-baseline="middle" dominant-baseline="middle" text-anchor="middle" transform="translate(39.76953125, 5)"><g><rect class="background" style="stroke: none"/><text y="-10.1" style=""><tspan class="text-outer-tspan" x="0" y="-0.1em" dy="1.1em"><tspan font-style="normal" class="text-inner-tspan" font-weight="normal">/version</tspan></tspan></text></g></g></g><g class="mindmap-node section-4" transform="translate(448.2617979836082, 478.39680463480573)"><g><path id="node-40" class="node-bkg node-no-border" d="M0 32.3078125 v-27.307812499999997 q0,-5 5,-5 h68.4375 q5,0 5,5 v32.3078125 H0 Z"/><line class="node-line-4" x1="0" y1="37.3078125" x2="78.4375" y2="37.3078125"/></g><g dy="1em" alignment-baseline="middle" dominant-baseline="middle" text-anchor="middle" transform="translate(39.21875, 5)"><g><rect class="background" style="stroke: none"/><text y="-10.1" style=""><tspan class="text-outer-tspan" x="0" y="-0.1em" dy="1.1em"><tspan font-style="normal" class="text-inner-tspan" font-weight="normal">/update</tspan></tspan></text></g></g></g><g class="mindmap-node section-0" transform="translate(535.4206806619452, 177.40687681532637)"><g><path id="node-3" class="node-bkg node-no-border" d="M0 32.3078125 v-27.307812499999997 q0,-5 5,-5 h142.015625 q5,0 5,5 v32.3078125 H0 Z"/><line class="node-line-0" x1="0" y1="37.3078125" x2="152.015625" y2="37.3078125"/></g><g dy="1em" alignment-baseline="middle" dominant-baseline="middle" text-anchor="middle" transform="translate(76.0078125, 5)"><g><rect class="background" style="stroke: none"/><text y="-10.1" style=""><tspan class="text-outer-tspan" x="0" y="-0.1em" dy="1.1em"><tspan font-style="normal" class="text-inner-tspan" font-weight="normal">Setup</tspan><tspan font-style="normal" class="text-inner-tspan" font-weight="normal"> new</tspan><tspan font-style="normal" class="text-inner-tspan" font-weight="normal"> project</tspan></tspan></text></g></g></g><g class="mindmap-node section-0" transform="translate(499.08958106840964, 74.76212568322086)"><g><path id="node-4" class="node-bkg node-no-border" d="M0 32.3078125 v-27.307812499999997 q0,-5 5,-5 h169.2265625 q5,0 5,5 v32.3078125 H0 Z"/><line class="node-line-0" x1="0" y1="37.3078125" x2="179.2265625" y2="37.3078125"/></g><g dy="1em" alignment-baseline="middle" dominant-baseline="middle" text-anchor="middle" transform="translate(89.61328125, 5)"><g><rect class="background" style="stroke: none"/><text y="-10.1" style=""><tspan class="text-outer-tspan" x="0" y="-0.1em" dy="1.1em"><tspan font-style="normal" class="text-inner-tspan" font-weight="normal">Configure</tspan><tspan font-style="normal" class="text-inner-tspan" font-weight="normal"> preferences</tspan></tspan></text></g></g></g><g class="mindmap-node section-0" transform="translate(782.327663690493, 170.05880190501358)"><g><path id="node-5" class="node-bkg node-no-border" d="M0 32.3078125 v-27.307812499999997 q0,-5 5,-5 h124.21875 q5,0 5,5 v32.3078125 H0 Z"/><line class="node-line-0" x1="0" y1="37.3078125" x2="134.21875" y2="37.3078125"/></g><g dy="1em" alignment-baseline="middle" dominant-baseline="middle" text-anchor="middle" transform="translate(67.109375, 5)"><g><rect class="background" style="stroke: none"/><text y="-10.1" style=""><tspan class="text-outer-tspan" x="0" y="-0.1em" dy="1.1em"><tspan font-style="normal" class="text-inner-tspan" font-weight="normal">Initialize</tspan><tspan font-style="normal" class="text-inner-tspan" font-weight="normal"> agents</tspan></tspan></text></g></g></g><g class="mindmap-node section-0" transform="translate(955.8044327665609, 335.47330787847085)"><g><path id="node-7" class="node-bkg node-no-border" d="M0 32.3078125 v-27.307812499999997 q0,-5 5,-5 h152.265625 q5,0 5,5 v32.3078125 H0 Z"/><line class="node-line-0" x1="0" y1="37.3078125" x2="162.265625" y2="37.3078125"/></g><g dy="1em" alignment-baseline="middle" dominant-baseline="middle" text-anchor="middle" transform="translate(81.1328125, 5)"><g><rect class="background" style="stroke: none"/><text y="-10.1" style=""><tspan class="text-outer-tspan" x="0" y="-0.1em" dy="1.1em"><tspan font-style="normal" class="text-inner-tspan" font-weight="normal">Brainstorm</tspan><tspan font-style="normal" class="text-inner-tspan" font-weight="normal"> features</tspan></tspan></text></g></g></g><g class="mindmap-node section-0" transform="translate(923.5196908983278, 273.04943887795827)"><g><path id="node-8" class="node-bkg node-no-border" d="M0 32.3078125 v-27.307812499999997 q0,-5 5,-5 h118.6171875 q5,0 5,5 v32.3078125 H0 Z"/><line class="node-line-0" x1="0" y1="37.3078125" x2="128.6171875" y2="37.3078125"/></g><g dy="1em" alignment-baseline="middle" dominant-baseline="middle" text-anchor="middle" transform="translate(64.30859375, 5)"><g><rect class="background" style="stroke: none"/><text y="-10.1" style=""><tspan class="text-outer-tspan" x="0" y="-0.1em" dy="1.1em"><tspan font-style="normal" class="text-inner-tspan" font-weight="normal">Generate</tspan><tspan font-style="normal" class="text-inner-tspan" font-weight="normal"> ideas</tspan></tspan></text></g></g></g><g class="mindmap-node section-0" transform="translate(861.0158392166395, 389.5124892289975)"><g><path id="node-9" class="node-bkg node-no-border" d="M0 32.3078125 v-27.307812499999997 q0,-5 5,-5 h180.8984375 q5,0 5,5 v32.3078125 H0 Z"/><line class="node-line-0" x1="0" y1="37.3078125" x2="190.8984375" y2="37.3078125"/></g><g dy="1em" alignment-baseline="middle" dominant-baseline="middle" text-anchor="middle" transform="translate(95.44921875, 5)"><g><rect class="background" style="stroke: none"/><text y="-10.1" style=""><tspan class="text-outer-tspan" x="0" y="-0.1em" dy="1.1em"><tspan font-style="normal" class="text-inner-tspan" font-weight="normal">Create</tspan><tspan font-style="normal" class="text-inner-tspan" font-weight="normal"> BRAINSTORM.md</tspan></tspan></text></g></g></g><g class="mindmap-node section-0" transform="translate(956.4840817235915, 120.19044202988965)"><g><path id="node-11" class="node-bkg node-no-border" d="M0 32.3078125 v-27.307812499999997 q0,-5 5,-5 h119.03125 q5,0 5,5 v32.3078125 H0 Z"/><line class="node-line-0" x1="0" y1="37.3078125" x2="129.03125" y2="37.3078125"/></g><g dy="1em" alignment-baseline="middle" dominant-baseline="middle" text-anchor="middle" transform="translate(64.515625, 5)"><g><rect class="background" style="stroke: none"/><text y="-10.1" style=""><tspan class="text-outer-tspan" x="0" y="-0.1em" dy="1.1em"><tspan font-style="normal" class="text-inner-tspan" font-weight="normal">Create</tspan><tspan font-style="normal" class="text-inner-tspan" font-weight="normal"> task</tspan><tspan font-style="normal" class="text-inner-tspan" font-weight="normal"> list</tspan></tspan></text></g></g></g><g class="mindmap-node section-0" transform="translate(1073.52391101272, 235.9415385900183)"><g><path id="node-12" class="node-bkg node-no-border" d="M0 32.3078125 v-27.307812499999997 q0,-5 5,-5 h143.671875 q5,0 5,5 v32.3078125 H0 Z"/><line class="node-line-0" x1="0" y1="37.3078125" x2="153.671875" y2="37.3078125"/></g><g dy="1em" alignment-baseline="middle" dominant-baseline="middle" text-anchor="middle" transform="translate(76.8359375, 5)"><g><rect class="background" style="stroke: none"/><text y="-10.1" style=""><tspan class="text-outer-tspan" x="0" y="-0.1em" dy="1.1em"><tspan font-style="normal" class="text-inner-tspan" font-weight="normal">Estimate</tspan><tspan font-style="normal" class="text-inner-tspan" font-weight="normal"> timelines</tspan></tspan></text></g></g></g><g class="mindmap-node section-0" transform="translate(1065.8174650754431, 165.86681250960675)"><g><path id="node-13" class="node-bkg node-no-border" d="M0 32.3078125 v-27.307812499999997 q0,-5 5,-5 h151.0859375 q5,0 5,5 v32.3078125 H0 Z"/><line class="node-line-0" x1="0" y1="37.3078125" x2="161.0859375" y2="37.3078125"/></g><g dy="1em" alignment-baseline="middle" dominant-baseline="middle" text-anchor="middle" transform="translate(80.54296875, 5)"><g><rect class="background" style="stroke: none"/><text y="-10.1" style=""><tspan class="text-outer-tspan" x="0" y="-0.1em" dy="1.1em"><tspan font-style="normal" class="text-inner-tspan" font-weight="normal">Generate</tspan><tspan font-style="normal" class="text-inner-tspan" font-weight="normal"> TASKS.md</tspan></tspan></text></g></g></g><g class="mindmap-node section-0" transform="translate(807.4613860885609, 15)"><g><path id="node-15" class="node-bkg node-no-border" d="M0 32.3078125 v-27.307812499999997 q0,-5 5,-5 h102.90625 q5,0 5,5 v32.3078125 H0 Z"/><line class="node-line-0" x1="0" y1="37.3078125" x2="112.90625" y2="37.3078125"/></g><g dy="1em" alignment-baseline="middle" dominant-baseline="middle" text-anchor="middle" transform="translate(56.453125, 5)"><g><rect class="background" style="stroke: none"/><text y="-10.1" style=""><tspan class="text-outer-tspan" x="0" y="-0.1em" dy="1.1em"><tspan font-style="normal" class="text-inner-tspan" font-weight="normal">Start</tspan><tspan font-style="normal" class="text-inner-tspan" font-weight="normal"> feature</tspan></tspan></text></g></g></g><g class="mindmap-node section-0" transform="translate(656.697662144807, 29.78021563033616)"><g><path id="node-16" class="node-bkg node-no-border" d="M0 32.3078125 v-27.307812499999997 q0,-5 5,-5 h119.265625 q5,0 5,5 v32.3078125 H0 Z"/><line class="node-line-0" x1="0" y1="37.3078125" x2="129.265625" y2="37.3078125"/></g><g dy="1em" alignment-baseline="middle" dominant-baseline="middle" text-anchor="middle" transform="translate(64.6328125, 5)"><g><rect class="background" style="stroke: none"/><text y="-10.1" style=""><tspan class="text-outer-tspan" x="0" y="-0.1em" dy="1.1em"><tspan font-style="normal" class="text-inner-tspan" font-weight="normal">Auto-branching</tspan></tspan></text></g></g></g><g class="mindmap-node section-0" transform="translate(879.102484747088, 68.03726980451137)"><g><path id="node-17" class="node-bkg node-no-border" d="M0 32.3078125 v-27.307812499999997 q0,-5 5,-5 h107.0390625 q5,0 5,5 v32.3078125 H0 Z"/><line class="node-line-0" x1="0" y1="37.3078125" x2="117.0390625" y2="37.3078125"/></g><g dy="1em" alignment-baseline="middle" dominant-baseline="middle" text-anchor="middle" transform="translate(58.51953125, 5)"><g><rect class="background" style="stroke: none"/><text y="-10.1" style=""><tspan class="text-outer-tspan" x="0" y="-0.1em" dy="1.1em"><tspan font-style="normal" class="text-inner-tspan" font-weight="normal">Scaffold</tspan><tspan font-style="normal" class="text-inner-tspan" font-weight="normal"> code</tspan></tspan></text></g></g></g><g class="mindmap-node section-0" transform="translate(514.3555413128679, 321.7670263981)"><g><path id="node-19" class="node-bkg node-no-border" d="M0 32.3078125 v-27.307812499999997 q0,-5 5,-5 h102.65625 q5,0 5,5 v32.3078125 H0 Z"/><line class="node-line-0" x1="0" y1="37.3078125" x2="112.65625" y2="37.3078125"/></g><g dy="1em" alignment-baseline="middle" dominant-baseline="middle" text-anchor="middle" transform="translate(56.328125, 5)"><g><rect class="background" style="stroke: none"/><text y="-10.1" style=""><tspan class="text-outer-tspan" x="0" y="-0.1em" dy="1.1em"><tspan font-style="normal" class="text-inner-tspan" font-weight="normal">View</tspan><tspan font-style="normal" class="text-inner-tspan" font-weight="normal"> metrics</tspan></tspan></text></g></g></g><g class="mindmap-node section-0" transform="translate(729.1584160450882, 351.1631792070278)"><g><path id="node-20" class="node-bkg node-no-border" d="M0 32.3078125 v-27.307812499999997 q0,-5 5,-5 h120.5234375 q5,0 5,5 v32.3078125 H0 Z"/><line class="node-line-0" x1="0" y1="37.3078125" x2="130.5234375" y2="37.3078125"/></g><g dy="1em" alignment-baseline="middle" dominant-baseline="middle" text-anchor="middle" transform="translate(65.26171875, 5)"><g><rect class="background" style="stroke: none"/><text y="-10.1" style=""><tspan class="text-outer-tspan" x="0" y="-0.1em" dy="1.1em"><tspan font-style="normal" class="text-inner-tspan" font-weight="normal">Export</tspan><tspan font-style="normal" class="text-inner-tspan" font-weight="normal"> projects</tspan></tspan></text></g></g></g><g class="mindmap-node section-0" transform="translate(563.782315693785, 390.4429747686949)"><g><path id="node-21" class="node-bkg node-no-border" d="M0 32.3078125 v-27.307812499999997 q0,-5 5,-5 h145.21875 q5,0 5,5 v32.3078125 H0 Z"/><line class="node-line-0" x1="0" y1="37.3078125" x2="155.21875" y2="37.3078125"/></g><g dy="1em" alignment-baseline="middle" dominant-baseline="middle" text-anchor="middle" transform="translate(77.609375, 5)"><g><rect class="background" style="stroke: none"/><text y="-10.1" style=""><tspan class="text-outer-tspan" x="0" y="-0.1em" dy="1.1em"><tspan font-style="normal" class="text-inner-tspan" font-weight="normal">Team</tspan><tspan font-style="normal" class="text-inner-tspan" font-weight="normal"> management</tspan></tspan></text></g></g></g></g></svg>